# xmcd CD database file generated by OrangeCD 6.1
#
# Track frame offsets:
#	150
#	15162
#	27141
#	38149
#	53419
#	64899
#	78055
#	96918
#	108362
#	119282
#	133739
#	147490
#	160430
#
# Disc length: 2340 seconds
#
# Revision: 0
# Processed by: cddbd v1.5.2PL0 Copyright (c) Steve Scherf et al.
# Submitted via: OrangeCD 6.1
#
DISCID=a109220d
DTITLE=Ryan Adams - Easy Tiger
DYEAR=1900
DGENRE=Alt.Rock
TTITLE0=Goodnight Rose
TTITLE1=Two
TTITLE2=Everybody Knows
TTITLE3=Halloweenhead
TTITLE4=Oh My God, Whatever, Etc.
TTITLE5=Tears Of Gold
TTITLE6=The Sun Also Sets
TTITLE7=Off Broadway
TTITLE8=Pearls On A String
TTITLE9=Rip Off
TTITLE10=Two Hearts
TTITLE11=These Girls
TTITLE12=I Taught Myself How To Grow Old
EXTD=
EXTT0=
EXTT1=
EXTT2=
EXTT3=
EXTT4=
EXTT5=
EXTT6=
EXTT7=
EXTT8=
EXTT9=
EXTT10=
EXTT11=
EXTT12=
PLAYORDER=
